<svg width="368" height="298" viewBox="0 0 368 298" fill="none" xmlns="http://www.w3.org/2000/svg">
<path d="M311.215 156.006C311.203 122.173 297.76 89.7284 273.839 65.8024C249.918 41.8763 217.477 28.426 183.644 28.4069C149.79 28.4069 117.324 41.855 93.386 65.7928C69.4482 89.7307 56 122.197 56 156.051C55.9863 176.303 60.8019 196.266 70.0473 214.285C79.2927 232.303 92.7013 247.858 109.161 259.658L97.4213 291.73C97.2466 292.21 97.1902 292.726 97.2567 293.232C97.3232 293.739 97.5108 294.222 97.8035 294.641C98.0963 295.06 98.4856 295.402 98.9385 295.638C99.3914 295.875 99.8946 295.999 100.406 296H266.873C267.384 296 267.889 295.878 268.343 295.642C268.797 295.406 269.187 295.064 269.481 294.645C269.775 294.226 269.963 293.742 270.03 293.235C270.097 292.727 270.041 292.211 269.866 291.73L258.081 259.613C274.535 247.809 287.938 232.254 297.179 214.235C306.42 196.217 311.231 176.255 311.215 156.006Z" fill="#B880FF" stroke="white" stroke-width="2"/>
<path d="M294.343 132.886C290.81 137.956 268.158 144.976 249.659 127.286C250.486 138.783 250.683 149.3 250.504 153.21C244.697 147.142 224.346 122.063 201.792 116.49C191.194 113.865 180.093 118.935 169.234 120.157L139.04 159.394L142.088 213.517C142.213 213.238 163.994 215.782 163.994 215.782L215.644 197.894C225.254 210.551 248.292 233.742 270.639 226.866C289.39 220.367 298.909 184.51 294.343 132.886Z" fill="white" stroke="black" stroke-width="1.2" stroke-linecap="round" stroke-linejoin="round"/>
<path d="M153.009 154.334H161.18C177.729 153.713 179.41 136.436 177.414 132.122L170.781 122.027L149.935 145.758L153.009 154.334Z" fill="#B880FF" stroke="black" stroke-width="1.2" stroke-linecap="round" stroke-linejoin="round"/>
<path d="M176.812 39.9936C169.863 45.7825 159.148 44.9735 149.917 55.0412C143.481 62.0616 149.521 81.5946 142.339 78.1159C136.568 75.0237 133.727 81.8733 132.154 78.6912C129.323 72.9832 126.222 61.4683 127.417 46.4387C129.602 19.1482 155.732 12.5053 160.784 11.5075C174.573 8.81083 191.077 11.2738 200.561 23.9213L176.812 39.9936Z" fill="black" stroke="black" stroke-width="1.2" stroke-linecap="round" stroke-linejoin="round"/>
<path d="M144.865 78.4035C142.339 69.4685 134.312 66.7178 130.995 69.3246C126.222 73.1539 128.073 94.2421 137.692 96.0759" fill="#B880FF"/>
<path d="M144.865 78.4035C142.339 69.4685 134.312 66.7178 130.995 69.3246C126.222 73.1539 127.876 94.2421 139.085 96.6691" stroke="black" stroke-width="1.2" stroke-linecap="round" stroke-linejoin="round"/>
<path d="M183.332 83.3306C186.943 82.8878 189.394 78.6341 188.805 73.8297C188.216 69.0253 184.81 65.4896 181.198 65.9324C177.586 66.3753 175.136 70.629 175.725 75.4334C176.314 80.2378 179.72 83.7735 183.332 83.3306Z" fill="black" stroke="black" stroke-width="1.2" stroke-linecap="round" stroke-linejoin="round"/>
<path d="M179.766 82.7106C182.949 82.3203 185.109 78.5725 184.59 74.3397C184.071 70.1069 181.07 66.992 177.887 67.3823C174.703 67.7725 172.544 71.5203 173.062 75.7531C173.581 79.9859 176.583 83.1009 179.766 82.7106Z" fill="#B880FF"/>
<path d="M183.338 83.3205C179.742 83.77 176.317 80.2283 175.733 75.4282C175.149 70.6281 177.594 66.3673 181.207 65.9268L174.619 66.3493C173.798 66.4733 173.013 66.7737 172.32 67.2299C171.626 67.6862 171.039 68.2874 170.6 68.9921V68.9921C161.611 81.316 168.173 97.8108 169.216 103.366C171.913 103.366 175.023 107.33 177.711 107.339C178.547 101.37 176.65 87.833 177.711 83.6711L183.383 83.3205H183.338Z" fill="black" stroke="black" stroke-width="1.2" stroke-linecap="round" stroke-linejoin="round"/>
<mask id="mask0_5126_511" style="mask-type:alpha" maskUnits="userSpaceOnUse" x="56" y="28" width="256" height="268">
<path d="M311.215 156.006C311.203 122.173 297.76 89.7284 273.839 65.8024C249.918 41.8763 217.477 28.426 183.644 28.4069C149.79 28.4069 117.324 41.855 93.386 65.7928C69.4482 89.7307 56 122.197 56 156.051C55.9863 176.303 60.8019 196.266 70.0473 214.285C79.2927 232.303 92.7013 247.858 109.161 259.658L97.4213 291.73C97.2466 292.21 97.1902 292.726 97.2567 293.232C97.3232 293.739 97.5108 294.222 97.8035 294.641C98.0963 295.06 98.4856 295.402 98.9385 295.638C99.3914 295.875 99.8946 295.999 100.406 296H266.873C267.384 296 267.889 295.878 268.343 295.642C268.797 295.406 269.187 295.064 269.481 294.645C269.775 294.226 269.963 293.742 270.03 293.235C270.097 292.727 270.041 292.211 269.866 291.73L258.081 259.613C274.535 247.809 287.938 232.254 297.179 214.235C306.42 196.217 311.231 176.255 311.215 156.006Z" fill="#6EDAFF"/>
</mask>
<g mask="url(#mask0_5126_511)">
<path d="M197.262 125.02C205.442 132.886 228.723 240.781 229.667 304.971H88.7109L119.085 208.582C135.93 218.182 183.473 199.674 196.282 192.348C197.254 191.792 198.04 190.961 198.542 189.96C199.045 188.959 199.24 187.832 199.105 186.721C197.684 174.918 192.408 134.486 186.835 132.49C181.262 130.495 176.497 123.843 179.644 122.468C183.149 120.921 195.41 118.153 197.262 125.02Z" fill="black"/>
</g>
<path d="M311.215 156.006C311.231 176.255 306.42 196.217 297.179 214.235C287.938 232.254 274.535 247.809 258.081 259.613L269.866 291.73C270.041 292.211 270.097 292.727 270.03 293.235C269.963 293.742 269.775 294.226 269.481 294.645C269.187 295.064 268.797 295.406 268.343 295.642C267.889 295.878 267.384 296 266.873 296H100.406C99.8946 295.999 99.3914 295.875 98.9385 295.638C98.4856 295.402 98.0963 295.06 97.8035 294.641C97.5108 294.222 97.3232 293.739 97.2567 293.232C97.1902 292.726 97.2466 292.21 97.4213 291.73L109.161 259.658C92.7013 247.858 79.2927 232.303 70.0473 214.285C60.8019 196.266 55.9863 176.303 56 156.051" stroke="white" stroke-width="2"/>
<path d="M208.049 214.092C209.181 221.283 210.266 228.592 211.303 236.016C212.435 244.232 213.469 252.322 214.404 260.287C214.694 262.655 214.253 265.055 213.14 267.165C212.026 269.275 210.293 270.993 208.174 272.089C201.002 275.812 193.646 279.169 186.133 282.148C178.152 285.311 170.005 288.039 161.728 290.319C160.022 290.793 158.231 290.883 156.486 290.582C154.74 290.282 153.083 289.599 151.632 288.583C150.182 287.566 148.974 286.241 148.096 284.703C147.218 283.164 146.692 281.451 146.555 279.685C146.043 272.853 145.288 265.689 144.209 258.228C143.085 250.426 141.719 243.055 140.209 236.142C151.406 235.142 162.467 232.964 173.207 229.643C185.399 225.865 197.095 220.645 208.049 214.092V214.092Z" stroke="#B880FF" stroke-width="1.2" stroke-linecap="round" stroke-linejoin="round"/>
<path d="M142.798 249.311C154.527 248.145 166.111 245.815 177.378 242.354C188.589 238.896 199.429 234.334 209.739 228.735" stroke="#B880FF" stroke-width="1.2" stroke-linecap="round" stroke-linejoin="round"/>
<path d="M208.606 66.9875C208.804 102.988 201.666 129.398 186.835 132.49C183.949 133.093 175.778 134 165.908 126.513" fill="#B880FF"/>
<path d="M208.606 66.9875C208.804 102.988 201.666 129.398 186.835 132.49C183.949 133.093 175.778 134 165.908 126.513" stroke="black" stroke-width="1.2" stroke-linecap="round" stroke-linejoin="round"/>
<path d="M182.052 101.793C182.345 103.108 182.944 104.335 183.799 105.375C184.655 106.416 185.745 107.239 186.978 107.78C188.007 108.162 189.101 108.334 190.197 108.288C191.293 108.242 192.368 107.977 193.361 107.51" stroke="black" stroke-width="1.2" stroke-linecap="round" stroke-linejoin="round"/>
<path d="M197.361 84.7677C204.552 88.7139 208.561 93.532 207.635 95.6444C206.709 97.7568 200.705 98.0175 193.361 95.7523" fill="#B880FF"/>
<path d="M197.361 84.7677C204.552 88.7139 208.561 93.532 207.635 95.6444C206.709 97.7568 200.705 98.0175 193.361 95.7523" stroke="black" stroke-width="1.2" stroke-linecap="round" stroke-linejoin="round"/>
<path d="M177.666 109.937C178.187 105.775 174.313 95.2399 163.418 97.613C175.311 88.8667 181.918 84.9385 180.327 81.8553C178.736 78.7721 158.888 86.0891 144.865 97.7928C144.865 95.995 144.128 94.7275 142.303 94.7365C139.607 94.7365 131.939 103.168 128.307 115.357C127.409 118.44 126.815 126.027 125.755 129.497C122.644 139.592 119.462 150.36 116.505 162.208L154.007 193.534C156.434 178.541 158.268 164.77 160.722 155.88C162.661 149.2 165.408 142.783 168.902 136.769L169.01 138.153C177.037 142.306 178.897 128.391 178.421 120.175C179.163 118.542 179.483 116.749 179.351 114.96C179.219 113.171 178.639 111.444 177.666 109.937V109.937Z" fill="#B880FF"/>
<path d="M157.764 169.992C143.472 177.085 122.707 153.408 121.458 143.924C123.391 137.38 125.054 132.409 126.069 128.337C127.526 122.18 127.409 117.443 128.613 114.404C118.725 119.312 102.015 126.908 91.7584 141.47C72.3961 168.815 73.5467 206.91 74.4456 217.535C77.3041 251.091 93.8977 270.912 104.487 272.476C145.414 278.543 151.122 208.546 157.764 169.992Z" fill="white"/>
<path d="M180.327 81.8553C178.726 78.7451 164.533 84.3632 156.461 89.7117C156.461 89.7117 139.903 84.7678 128.307 115.357C127.166 118.369 122.015 142.01 120.891 145.857C121.79 143.394 123.067 160.797 123.651 155.25C125.503 137.614 131.211 121.038 139.031 110.207C148.775 96.7321 162.807 87.815 180.327 81.8553Z" fill="white"/>
<path d="M157.414 99.9322C172.911 91.5545 178.277 105.083 177.666 109.937" stroke="black" stroke-width="1.2" stroke-linecap="round" stroke-linejoin="round"/>
<path d="M167.329 117.146C171.257 111.6 175.616 112.175 177.405 114.818C179.455 117.847 178.826 143.34 168.29 137.875" stroke="black" stroke-width="1.2" stroke-linecap="round" stroke-linejoin="round"/>
<path d="M135.777 107.348C147.751 90.4308 178.331 77.9631 180.327 81.8553C181.909 84.9206 175.374 88.8308 163.607 97.4782" stroke="black" stroke-width="1.2" stroke-linecap="round" stroke-linejoin="round"/>
<path d="M162.133 108.31C164.47 106.773 167.949 105.047 171.571 105.613C177.369 106.512 181.306 114.225 178.421 120.166" stroke="black" stroke-width="1.2" stroke-linecap="round" stroke-linejoin="round"/>
<path d="M156.461 89.7117C142.978 86.4577 132.02 101.793 127.912 115.78C127.013 118.872 112.163 175.754 107.57 207.413" stroke="black" stroke-width="1.2" stroke-linecap="round" stroke-linejoin="round"/>
<path d="M117.143 159.727C111.327 144.293 104.433 135.538 97.0167 135.079C90.0323 134.657 83.9018 147.16 88.7109 146.405C95.7133 145.3 98.6617 150.001 101.988 156.185C105.808 163.305 109.026 173.435 111.606 183.997C113.323 175.35 115.192 167.296 117.143 159.727Z" fill="black"/>
<path d="M116.505 162.199C122.968 184.132 144.865 195.197 154.915 187.808" stroke="black" stroke-width="1.2" stroke-linecap="round" stroke-linejoin="round"/>
<path d="M148.515 103.6C151.637 106.184 154.362 109.213 156.605 112.589C159.119 116.395 160.99 120.589 162.142 125.002" stroke="black" stroke-width="1.2" stroke-linecap="round" stroke-linejoin="round"/>
<path d="M127.903 114.71C118.015 119.618 102.014 126.863 91.731 141.425C72.3957 168.815 73.5462 206.91 74.4451 217.535C77.3036 251.091 93.8973 270.912 104.486 272.476C145.413 278.543 151.121 208.546 157.764 170.001C143.472 177.094 122.159 153.012 120.909 143.484" stroke="black" stroke-width="1.2" stroke-linecap="round" stroke-linejoin="round"/>
<path d="M271.286 27.5888C271.591 24.395 271.234 21.1727 270.239 18.1226C269.244 15.0724 267.632 12.2598 265.503 9.85993C263.374 7.46001 260.773 5.52417 257.863 4.17299C254.953 2.82181 251.796 2.08424 248.589 2.00617C242.91 1.87604 237.376 3.80759 233.011 7.44334C228.647 11.0791 225.747 16.1729 224.849 21.7819C224.19 25.9621 224.677 30.2429 226.261 34.1674C227.844 38.092 230.463 41.5131 233.838 44.0656C235.387 45.2585 236.606 46.826 237.381 48.6203C238.156 50.4147 238.462 52.3769 238.27 54.322L236.031 78.3406C235.843 80.1401 236.34 81.9446 237.422 83.3941C238.505 84.8436 240.095 85.8316 241.874 86.161C242.823 86.3128 243.793 86.2678 244.724 86.0289C245.655 85.7899 246.527 85.3621 247.286 84.7721C248.045 84.182 248.674 83.4422 249.135 82.5987C249.595 81.7552 249.878 80.826 249.964 79.8687L252.23 55.5985C252.427 53.6251 253.119 51.7335 254.243 50.0992C255.367 48.4649 256.885 47.1409 258.657 46.25C262.164 44.456 265.161 41.8045 267.369 38.5419C269.577 35.2794 270.924 31.5117 271.286 27.5888V27.5888Z" fill="white" stroke="#B880FF" stroke-width="1.2" stroke-linecap="round" stroke-linejoin="round"/>
<path d="M250.458 20.2448L250.665 18.1055C250.658 17.9382 250.688 17.7714 250.753 17.6171C250.818 17.4628 250.916 17.3248 251.041 17.2131C251.165 17.1013 251.313 17.0186 251.474 16.9708C251.634 16.9231 251.803 16.9115 251.969 16.9369L254.971 17.2155L255.393 12.6311L251.267 12.2267C246.674 11.7952 245.308 15.1211 245.11 17.3054L244.876 19.7235L242.225 19.4808L241.928 22.7168L241.721 24.8292L244.418 25.0809L243.168 38.4655L248.562 38.9599L249.811 25.5843L253.784 25.9528L254.171 23.8674L254.773 20.6493L250.458 20.2448Z" fill="#B880FF"/>
<path d="M241.847 20.5684C240.548 17.6296 238.657 14.9901 236.293 12.8149C233.928 10.6397 231.14 8.97543 228.103 7.92604C225.067 6.87666 221.846 6.46471 218.643 6.71593C215.44 6.96714 212.323 7.87612 209.487 9.38609C204.476 12.0569 200.6 16.4507 198.576 21.756C196.552 27.0614 196.516 32.9199 198.475 38.2497C199.943 42.216 202.46 45.7096 205.758 48.358C209.055 51.0064 213.01 52.7103 217.199 53.2883C219.134 53.5683 220.966 54.3368 222.521 55.5211C224.077 56.7053 225.305 58.2664 226.089 60.057L235.905 82.089C236.623 83.7525 237.941 85.0839 239.598 85.8172C241.254 86.5505 243.127 86.6315 244.84 86.0442C245.741 85.7115 246.564 85.1976 247.258 84.5343C247.952 83.8709 248.503 83.0723 248.876 82.1876C249.249 81.303 249.437 80.3512 249.428 79.3911C249.419 78.431 249.213 77.483 248.822 76.6057L238.935 54.349C238.139 52.5319 237.816 50.5432 237.995 48.5678C238.174 46.5923 238.85 44.6942 239.959 43.0499C242.146 39.7664 243.465 35.9829 243.795 32.052C244.126 28.121 243.455 24.1705 241.847 20.5684V20.5684Z" fill="white" stroke="#B880FF" stroke-width="1.2" stroke-linecap="round" stroke-linejoin="round"/>
<path d="M222.745 14.3481L207.68 21.0539C206.423 21.6161 205.44 22.6536 204.946 23.9391C204.453 25.2246 204.489 26.6533 205.046 27.9124L207.284 32.9283L208.102 34.771L211.761 42.978C212.321 44.2366 213.359 45.2212 214.645 45.7151C215.931 46.209 217.361 46.1718 218.62 45.6117L233.685 38.897C234.942 38.3349 235.925 37.2969 236.417 36.0109C236.909 34.7249 236.87 33.2961 236.31 32.0384L232.66 23.8404L231.833 21.9887L229.604 16.9729C229.042 15.7158 228.004 14.7333 226.718 14.2411C225.432 13.7489 224.003 13.7874 222.745 14.3481ZM225.37 16.5683L225.91 16.3256L226.152 16.865L227.761 20.4606L223.617 22.3213L221.748 18.1684L225.37 16.5683ZM216.058 29.0181C216.209 28.2841 216.532 27.5965 217.001 27.012C217.47 26.4275 218.071 25.9628 218.754 25.6562C219.44 25.3531 220.188 25.217 220.936 25.2592C221.685 25.3014 222.413 25.5206 223.06 25.8989C223.215 25.9894 223.365 26.0884 223.51 26.1956C224.158 26.6738 224.672 27.3117 225.002 28.0473C225.511 29.1942 225.544 30.4961 225.094 31.6673C224.644 32.8385 223.747 33.7834 222.602 34.2946C222.034 34.5481 221.423 34.6873 220.802 34.7043C220.181 34.7213 219.563 34.6157 218.982 34.3937C218.402 34.1716 217.872 33.8374 217.421 33.4101C216.97 32.9829 216.607 32.4709 216.354 31.9035C216.032 31.1629 215.902 30.3527 215.977 29.5484C215.994 29.3703 216.021 29.1933 216.058 29.0181ZM233.91 33.1081C234.048 33.4167 234.123 33.7495 234.132 34.0874C234.141 34.4253 234.084 34.7617 233.963 35.0773C233.842 35.3929 233.66 35.6816 233.427 35.9267C233.194 36.1718 232.915 36.3687 232.606 36.5059L217.541 43.2207C216.917 43.4967 216.21 43.5144 215.573 43.2702C214.936 43.0259 214.422 42.5395 214.143 41.9173L210.233 33.1351L209.666 31.8586L213.325 30.2316C213.325 30.4923 213.325 30.7619 213.397 31.0316C213.497 31.6976 213.684 32.3475 213.954 32.9643C214.75 34.7432 216.219 36.1344 218.038 36.8335C219.858 37.5326 221.88 37.4827 223.662 36.6947C225.443 35.9005 226.835 34.4317 227.533 32.6112C228.231 30.7907 228.177 28.7675 227.384 26.9866C227.111 26.3688 226.751 25.7936 226.314 25.2787C226.143 25.0702 225.96 24.8721 225.766 24.6854L229.415 23.0943L229.982 24.3618L233.91 33.1081Z" fill="#B880FF"/>
<path d="M213.774 27.9124C211.261 25.9267 208.367 24.4774 205.272 23.6543C202.176 22.8312 198.945 22.6517 195.777 23.1268C192.609 23.602 189.573 24.7217 186.855 26.4168C184.137 28.112 181.796 30.3465 179.976 32.9822C176.77 37.6685 175.369 43.3561 176.03 48.9951C176.691 54.6341 179.369 59.8435 183.571 63.6616C186.71 66.4957 190.558 68.4267 194.706 69.2497C198.855 70.0727 203.148 69.7569 207.132 68.3359C208.978 67.6902 210.958 67.5247 212.886 67.8549C214.814 68.1851 216.626 69.0002 218.152 70.2236L237.029 85.2172C238.434 86.3578 240.218 86.9265 242.024 86.8099C243.83 86.6933 245.526 85.8999 246.773 84.588C247.418 83.8764 247.91 83.04 248.218 82.1306C248.527 81.2213 248.646 80.2582 248.568 79.3011C248.489 78.344 248.215 77.4131 247.763 76.566C247.31 75.719 246.689 74.9738 245.937 74.3765L226.853 59.2301C225.306 57.9883 224.098 56.3752 223.342 54.5411C222.586 52.7069 222.307 50.7112 222.53 48.7399C222.95 44.8113 222.367 40.8403 220.836 37.198C219.305 33.5556 216.875 30.3609 213.774 27.9124V27.9124Z" fill="white"/>
<path d="M247.124 84.023C247.771 83.3126 248.265 82.4765 248.575 81.5668C248.885 80.6571 249.005 79.6933 248.927 78.7354C248.848 77.7775 248.573 76.846 248.119 75.9989C247.665 75.1518 247.042 74.4072 246.288 73.8115L227.204 58.6651C225.659 57.4243 224.452 55.8124 223.698 53.9797C222.943 52.147 222.665 50.1531 222.889 48.1839C223.306 44.2582 222.722 40.2908 221.191 36.6519C219.66 33.013 217.232 29.8212 214.134 27.3744C209.733 23.8692 204.213 22.0749 198.592 22.3226" stroke="#B880FF" stroke-width="1.2" stroke-linecap="round" stroke-linejoin="round"/>
<path d="M202.134 31.4091C201.854 32.4715 201.418 33.4863 200.84 34.4204C201.025 33.104 200.724 31.7653 199.995 30.6541C199.818 31.9092 199.429 33.1252 198.844 34.2496C198.096 34.3194 197.369 34.5411 196.709 34.9012C196.049 35.2614 195.47 35.7523 195.006 36.3441C194.554 36.9019 194.216 37.5436 194.013 38.2321C193.809 38.9207 193.743 39.6427 193.819 40.3567C193.895 41.0707 194.112 41.7627 194.456 42.393C194.8 43.0232 195.265 43.5794 195.824 44.0297C196.152 44.2891 196.508 44.5121 196.885 44.6948C195.446 46.3429 193.68 47.6735 191.699 48.602C189.718 49.5305 187.566 50.0367 185.379 50.0882C185.719 50.9865 186.297 51.7755 187.051 52.3714C187.753 52.9305 188.583 53.3056 189.467 53.4625C190.351 53.6195 191.26 53.5534 192.111 53.2703C191.546 53.9369 190.832 54.4605 190.026 54.7985L190.08 54.8434C190.618 55.2531 191.227 55.558 191.878 55.7423C192.757 56.0056 193.688 56.0448 194.586 55.8564C195.484 55.668 196.32 55.258 197.019 54.6636C196.825 55.115 196.571 55.5382 196.264 55.9221C196.048 56.1923 195.807 56.4421 195.545 56.6682C196.62 57.0593 197.79 57.1068 198.893 56.804C199.996 56.5013 200.978 55.8633 201.703 54.9782C201.662 57.4556 200.806 59.8504 199.267 61.7919C198.984 62.1335 198.684 62.4605 198.368 62.7717C201.201 61.7876 203.696 60.0165 205.559 57.6659C207.832 54.9119 209.075 51.4524 209.075 47.8814C209.075 44.3105 207.832 40.851 205.559 38.0969C204.868 37.2376 204.084 36.4569 203.222 35.7688L202.664 35.3463C202.728 34.0126 202.548 32.6786 202.134 31.4091V31.4091Z" fill="#B880FF"/>
<path d="M159.149 162.576C164.524 162.942 169.873 161.548 174.385 158.603C185.738 151.062 184.722 137.335 183.644 132.868" stroke="black" stroke-width="1.2" stroke-linecap="round" stroke-linejoin="round"/>
<path d="M246.8 182.73C248.868 173.012 250.107 163.137 250.504 153.21C250.825 145.095 250.582 136.967 249.775 128.886" stroke="black" stroke-width="1.2" stroke-linecap="round" stroke-linejoin="round"/>
<path d="M250.459 143.052C268.077 162.738 292.968 154.468 295.251 146.783" stroke="black" stroke-width="1.2" stroke-linecap="round" stroke-linejoin="round"/>
<path d="M243.088 66.9875C228.004 69.7651 222.305 67.6976 221.838 66.3223C220.399 62.1604 238.126 55.4367 249.47 55.985C256.859 56.3445 260.167 61.1986 262.261 63.329L259.448 66.9875H243.088Z" fill="#B880FF"/>
<path d="M262.261 63.329C260.167 61.1987 256.868 56.3446 249.47 55.985C239.582 55.5086 224.795 60.5784 222.161 64.6414C226.737 64.2998 253.488 53.3063 257.533 66.9875H259.448L262.261 63.329Z" fill="white"/>
<path d="M243.088 66.9875C228.004 69.7651 222.305 67.6976 221.838 66.3223C220.399 62.1604 238.126 55.4367 249.47 55.985C256.859 56.3445 260.167 61.1986 262.261 63.329L259.448 66.9875H243.088Z" stroke="black" stroke-width="1.2" stroke-linecap="round" stroke-linejoin="round"/>
<path d="M255.106 68.7943C243.052 78.4485 235.429 92.0668 238.027 94.8623C242.252 99.4467 256.418 85.6486 264.095 79.5002" fill="#B880FF"/>
<path d="M250.755 78.2237C238.332 84.3812 227.779 86.7903 226.773 82.7902C225.955 79.5811 239.627 65.9718 253.245 63.0144C260.194 61.5132 266.414 64.7133 268.32 65.8099C282.504 74.0349 287.862 90.3858 289.048 95.7523" fill="#B880FF"/>
<path d="M264.032 72.4259C264.796 70.5741 263.358 68.4078 263.214 68.1831C262.315 66.7988 258.989 66.7988 255.124 68.7943C251.798 70.8797 246.18 76.2282 241.083 84.3992C237.991 89.3611 236.724 93.4601 238 94.8444C238.522 86.8622 257.111 70.1516 264.032 72.4259Z" fill="white"/>
<path d="M258.36 69.1629C259.978 69.8999 263.223 65.8459 262.63 63.4279C259.582 62.5276 256.36 62.3857 253.245 63.0144C239.627 65.9718 225.955 79.5811 226.773 82.7902C226.819 82.9833 226.895 83.1681 226.997 83.3385C230.692 77.6754 248.103 64.4436 258.36 69.1629Z" fill="white"/>
<path d="M255.106 68.7943C243.052 78.4485 235.429 92.0668 238.027 94.8623C242.252 99.4467 256.418 85.6486 264.095 79.5002" stroke="black" stroke-width="1.2" stroke-linecap="round" stroke-linejoin="round"/>
<path d="M290.262 135.87C291.836 135.216 293.232 134.196 294.334 132.895C293.199 120.433 291.435 108.036 289.048 95.7523C287.862 90.3589 282.504 74.0349 268.32 65.81C265.311 64.0812 261.967 63.0175 258.513 62.6908L255.052 64.4886L260.724 72.5068C277.956 68.7044 288.617 118.8 290.262 135.87Z" fill="white"/>
<path d="M242.836 81.7474C234.117 85.1363 227.555 85.9003 226.773 82.7902C225.991 79.68 239.627 65.9718 253.245 63.0144C260.194 61.5132 266.414 64.7133 268.32 65.8099C282.505 74.0349 287.862 90.3858 289.049 95.7523" stroke="black" stroke-width="1.2" stroke-linecap="round" stroke-linejoin="round"/>
<path d="M270.639 226.866C293.615 218.91 302.738 166.873 289.048 95.7523" stroke="black" stroke-width="1.2" stroke-linecap="round" stroke-linejoin="round"/>
<path d="M244.859 94.7365C249.65 109.937 250.872 145.264 250.504 153.21" stroke="black" stroke-width="1.2" stroke-linecap="round" stroke-linejoin="round"/>
<path d="M250.755 101.218C250 91.9949 266.989 76.6057 274.288 81.1362C273.776 80.8216 274.495 78.4395 273.111 76.4709C271.052 73.5495 271.78 74.1068 268.877 73.7742C268.877 73.7832 245.596 87.0869 250.755 101.218Z" fill="white"/>
<path d="M263.187 77.244C246.8 89.1813 249.048 100.813 251.367 101.721C256.194 103.6 263.052 89.4151 270.639 90.26C269.008 92.7582 267.757 95.4846 266.927 98.3501C265.917 101.832 265.548 105.469 265.839 109.083" stroke="black" stroke-width="1.2" stroke-linecap="round" stroke-linejoin="round"/>
<path d="M294.343 132.886C290.81 137.956 268.158 144.976 249.659 127.286" stroke="black" stroke-width="1.2" stroke-linecap="round" stroke-linejoin="round"/>
<path d="M174.942 127.025C167.886 133.991 159.895 155.25 157.764 169.992" stroke="black" stroke-width="1.2" stroke-linecap="round" stroke-linejoin="round"/>
<path d="M97.1428 269.069C99.28 270.781 101.8 271.95 104.487 272.476C108.01 273.034 111.604 272.964 115.103 272.269" stroke="black" stroke-width="1.2" stroke-linecap="round" stroke-linejoin="round"/>
<path d="M179.158 70.9787C178.591 70.6461 178.681 69.037 180.192 69.5584C181.558 70.0258 184.066 73.2439 182.367 75.4552C182.367 75.4552 181.36 72.2641 179.158 70.9787Z" fill="white"/>
</svg>
